<svg width="21" height="20" viewBox="0 0 21 20" fill="none" xmlns="http://www.w3.org/2000/svg">
<path d="M13.667 7.50001V5.00001C13.667 3.15906 12.1746 1.66667 10.3336 1.66667C8.49269 1.66667 7.00031 3.15906 7.00031 5.00001V7.5M3.32698 8.62664L2.82698 13.96C2.68481 15.4764 2.61373 16.2346 2.86535 16.8202C3.08639 17.3347 3.47374 17.7601 3.96532 18.0282C4.52491 18.3333 5.28645 18.3333 6.80951 18.3333H13.8578C15.3808 18.3333 16.1424 18.3333 16.702 18.0282C17.1935 17.7601 17.5809 17.3347 17.8019 16.8202C18.0536 16.2346 17.9825 15.4764 17.8403 13.96L17.3403 8.62664C17.2203 7.34613 17.1602 6.70587 16.8723 6.22181C16.6186 5.79549 16.2439 5.45426 15.7958 5.24154C15.287 5.00001 14.6439 5.00001 13.3578 5.00001L7.30951 5.00001C6.02338 5.00001 5.38032 5.00001 4.87149 5.24154C4.42336 5.45426 4.04865 5.79549 3.79503 6.22181C3.50705 6.70587 3.44703 7.34613 3.32698 8.62664Z" stroke="white" stroke-width="1.66667" stroke-linecap="round" stroke-linejoin="round"/>
</svg>
