<svg width="21" height="20" viewBox="0 0 21 20" fill="none" xmlns="http://www.w3.org/2000/svg">
<path d="M14.0005 7.50001V5.00001C14.0005 3.15906 12.5081 1.66667 10.6671 1.66667C8.82619 1.66667 7.3338 3.15906 7.3338 5.00001V7.5M3.66047 8.62664L3.16047 13.96C3.01831 15.4764 2.94723 16.2346 3.19885 16.8202C3.41989 17.3347 3.80724 17.7601 4.29882 18.0282C4.85841 18.3333 5.61994 18.3333 7.14301 18.3333H14.1913C15.7143 18.3333 16.4759 18.3333 17.0355 18.0282C17.527 17.7601 17.9144 17.3347 18.1354 16.8202C18.387 16.2346 18.316 15.4764 18.1738 13.96L17.6738 8.62664C17.5538 7.34613 17.4937 6.70587 17.2058 6.22181C16.9521 5.79549 16.5774 5.45426 16.1293 5.24154C15.6205 5.00001 14.9774 5.00001 13.6913 5.00001L7.64301 5.00001C6.35688 5.00001 5.71381 5.00001 5.20499 5.24154C4.75686 5.45426 4.38214 5.79549 4.12852 6.22181C3.84055 6.70587 3.78052 7.34613 3.66047 8.62664Z" stroke="black" stroke-width="1.66667" stroke-linecap="round" stroke-linejoin="round"/>
</svg>
